<svg width="610" height="708" viewBox="0 0 610 708" fill="none" xmlns="http://www.w3.org/2000/svg">
<g filter="url(#filter0_i)">
<path d="M610 309.228C610 473.78 436.227 655.422 318.158 706.74C313.825 708.623 309.705 703.762 311.767 699.511C328.277 665.475 336.951 618.456 305 618.456C136.553 618.456 0 480.01 0 309.228C0 138.446 136.553 0 305 0C473.447 0 610 138.446 610 309.228Z" fill="url(#paint0_linear)"/>
<path d="M610 309.228C610 473.78 436.227 655.422 318.158 706.74C313.825 708.623 309.705 703.762 311.767 699.511C328.277 665.475 336.951 618.456 305 618.456C136.553 618.456 0 480.01 0 309.228C0 138.446 136.553 0 305 0C473.447 0 610 138.446 610 309.228Z" fill="url(#paint1_radial)" fill-opacity="0.8"/>
<path d="M610 309.228C610 473.78 436.227 655.422 318.158 706.74C313.825 708.623 309.705 703.762 311.767 699.511C328.277 665.475 336.951 618.456 305 618.456C136.553 618.456 0 480.01 0 309.228C0 138.446 136.553 0 305 0C473.447 0 610 138.446 610 309.228Z" fill="url(#paint2_radial)" fill-opacity="0.8"/>
<path d="M610 309.228C610 473.78 436.227 655.422 318.158 706.74C313.825 708.623 309.705 703.762 311.767 699.511C328.277 665.475 336.951 618.456 305 618.456C136.553 618.456 0 480.01 0 309.228C0 138.446 136.553 0 305 0C473.447 0 610 138.446 610 309.228Z" fill="url(#paint3_radial)" fill-opacity="0.8"/>
<path d="M610 309.228C610 473.78 436.227 655.422 318.158 706.74C313.825 708.623 309.705 703.762 311.767 699.511C328.277 665.475 336.951 618.456 305 618.456C136.553 618.456 0 480.01 0 309.228C0 138.446 136.553 0 305 0C473.447 0 610 138.446 610 309.228Z" fill="url(#paint4_linear)"/>
<path d="M610 309.228C610 473.78 436.227 655.422 318.158 706.74C313.825 708.623 309.705 703.762 311.767 699.511C328.277 665.475 336.951 618.456 305 618.456C136.553 618.456 0 480.01 0 309.228C0 138.446 136.553 0 305 0C473.447 0 610 138.446 610 309.228Z" fill="url(#paint5_radial)" fill-opacity="0.8"/>
<path d="M610 309.228C610 473.78 436.227 655.422 318.158 706.74C313.825 708.623 309.705 703.762 311.767 699.511C328.277 665.475 336.951 618.456 305 618.456C136.553 618.456 0 480.01 0 309.228C0 138.446 136.553 0 305 0C473.447 0 610 138.446 610 309.228Z" fill="url(#paint6_radial)" fill-opacity="0.8"/>
<path d="M610 309.228C610 473.78 436.227 655.422 318.158 706.74C313.825 708.623 309.705 703.762 311.767 699.511C328.277 665.475 336.951 618.456 305 618.456C136.553 618.456 0 480.01 0 309.228C0 138.446 136.553 0 305 0C473.447 0 610 138.446 610 309.228Z" fill="url(#paint7_radial)" fill-opacity="0.8"/>
</g>
<defs>
<filter id="filter0_i" x="-33.355" y="0" width="643.355" height="707.157" filterUnits="userSpaceOnUse" color-interpolation-filters="sRGB">
<feFlood flood-opacity="0" result="BackgroundImageFix"/>
<feBlend mode="normal" in="SourceGraphic" in2="BackgroundImageFix" result="shape"/>
<feColorMatrix in="SourceAlpha" type="matrix" values="0 0 0 0 0 0 0 0 0 0 0 0 0 0 0 0 0 0 127 0" result="hardAlpha"/>
<feOffset dx="-33.355"/>
<feGaussianBlur stdDeviation="33.355"/>
<feComposite in2="hardAlpha" operator="arithmetic" k2="-1" k3="1"/>
<feColorMatrix type="matrix" values="0 0 0 0 0.80575 0 0 0 0 0.7375 0 0 0 0 1 0 0 0 0.3 0"/>
<feBlend mode="normal" in2="shape" result="effect1_innerShadow"/>
</filter>
<linearGradient id="paint0_linear" x1="610" y1="-74.8116" x2="-71.5878" y2="671.013" gradientUnits="userSpaceOnUse">
<stop stop-color="#36E619"/>
<stop offset="0.527788" stop-color="#8D41EE"/>
<stop offset="1" stop-color="#D641EE"/>
</linearGradient>
<radialGradient id="paint1_radial" cx="0" cy="0" r="1" gradientUnits="userSpaceOnUse" gradientTransform="translate(165.424 -154.783) rotate(95.2815) scale(870.478 1246.96)">
<stop stop-color="#52B6FF"/>
<stop offset="1" stop-color="#8F41EE" stop-opacity="0"/>
</radialGradient>
<radialGradient id="paint2_radial" cx="0" cy="0" r="1" gradientUnits="userSpaceOnUse" gradientTransform="translate(162.839 41.2754) rotate(65.6913) scale(345.342 901.37)">
<stop stop-color="#9DD6FF"/>
<stop offset="1" stop-color="#8F41EE" stop-opacity="0"/>
</radialGradient>
<radialGradient id="paint3_radial" cx="0" cy="0" r="1" gradientUnits="userSpaceOnUse" gradientTransform="translate(899.492 544.319) rotate(140.041) scale(546.281 780.782)">
<stop stop-color="#5263FF"/>
<stop offset="1" stop-color="#8F41EE" stop-opacity="0"/>
</radialGradient>
<linearGradient id="paint4_linear" x1="610" y1="-74.8116" x2="-71.5878" y2="671.013" gradientUnits="userSpaceOnUse">
<stop stop-color="#36E619"/>
<stop offset="0.527788" stop-color="#8D41EE"/>
<stop offset="1" stop-color="#D641EE"/>
</linearGradient>
<radialGradient id="paint5_radial" cx="0" cy="0" r="1" gradientUnits="userSpaceOnUse" gradientTransform="translate(165.424 -154.783) rotate(95.2815) scale(870.478 1246.96)">
<stop stop-color="#52B6FF"/>
<stop offset="1" stop-color="#8F41EE" stop-opacity="0"/>
</radialGradient>
<radialGradient id="paint6_radial" cx="0" cy="0" r="1" gradientUnits="userSpaceOnUse" gradientTransform="translate(162.839 41.2754) rotate(65.6913) scale(345.342 901.37)">
<stop stop-color="#9DD6FF"/>
<stop offset="1" stop-color="#8F41EE" stop-opacity="0"/>
</radialGradient>
<radialGradient id="paint7_radial" cx="0" cy="0" r="1" gradientUnits="userSpaceOnUse" gradientTransform="translate(899.492 544.319) rotate(140.041) scale(546.281 780.782)">
<stop stop-color="#5263FF"/>
<stop offset="1" stop-color="#8F41EE" stop-opacity="0"/>
</radialGradient>
</defs>
</svg>
